<svg xmlns="http://www.w3.org/2000/svg" xmlns:xlink="http://www.w3.org/1999/xlink" width="500" zoomAndPan="magnify" viewBox="0 0 375 374.999991" height="500" preserveAspectRatio="xMidYMid meet" version="1.0"><defs><clipPath id="4f6cf3667a"><path d="M 99 31.914062 L 320 31.914062 L 320 355.164062 L 99 355.164062 Z M 99 31.914062 " clip-rule="nonzero"/></clipPath></defs><g clip-path="url(#4f6cf3667a)"><path fill="#1800ad" d="M 99.996094 259.882812 L 99.996094 127.355469 C 99.996094 114.015625 105.726562 101.769531 115.601562 93.359375 L 115.601562 46.515625 C 115.601562 38.484375 122.171875 31.914062 130.207031 31.914062 C 138.238281 31.914062 144.808594 38.484375 144.808594 46.515625 L 144.808594 82.519531 C 152.496094 82.523438 160.179688 84.542969 167.164062 88.578125 L 173.988281 92.515625 L 173.988281 76.777344 C 173.988281 68.75 180.558594 62.175781 188.585938 62.175781 L 188.59375 62.175781 C 196.621094 62.175781 203.195312 68.75 203.195312 76.777344 L 203.195312 109.378906 L 232.371094 126.226562 L 232.371094 46.515625 C 232.371094 38.484375 238.941406 31.914062 246.972656 31.914062 C 255.003906 31.914062 261.578125 38.484375 261.578125 46.515625 L 261.578125 143.085938 L 281.933594 154.839844 C 285.1875 156.71875 288.140625 158.949219 290.75 161.46875 L 290.75 98.863281 C 290.75 90.828125 297.320312 84.261719 305.355469 84.261719 C 313.386719 84.261719 319.957031 90.828125 319.957031 98.863281 L 319.957031 288.375 C 319.957031 296.410156 313.386719 302.976562 305.355469 302.976562 C 297.320312 302.976562 290.75 296.410156 290.75 288.375 L 290.75 225.769531 C 288.136719 228.285156 285.1875 230.515625 281.933594 232.398438 L 261.578125 244.152344 L 261.578125 340.71875 C 261.578125 348.753906 255.003906 355.320312 246.972656 355.320312 C 238.941406 355.320312 232.371094 348.753906 232.371094 340.71875 L 232.371094 261.011719 L 203.195312 277.859375 L 203.195312 310.457031 C 203.195312 318.492188 196.621094 325.058594 188.59375 325.058594 L 188.585938 325.058594 C 180.558594 325.058594 173.988281 318.492188 173.988281 310.457031 L 173.988281 294.722656 L 167.164062 298.660156 C 160.183594 302.695312 152.496094 304.710938 144.8125 304.71875 L 144.8125 340.722656 C 144.8125 348.753906 138.238281 355.320312 130.207031 355.320312 C 122.171875 355.320312 115.601562 348.753906 115.601562 340.722656 L 115.601562 293.878906 C 105.726562 285.46875 99.996094 273.222656 99.996094 259.882812 Z M 99.996094 259.882812 " fill-opacity="1" fill-rule="nonzero"/></g><path fill="#ffffff" d="M 129.171875 259.882812 L 129.171875 127.355469 C 129.171875 121.628906 132.015625 116.707031 136.976562 113.84375 L 137.089844 113.777344 L 137.207031 113.710938 L 137.210938 113.710938 L 137.441406 113.585938 L 137.445312 113.582031 L 137.5625 113.519531 L 137.675781 113.460938 L 137.679688 113.460938 L 137.796875 113.398438 L 137.914062 113.339844 L 137.917969 113.339844 L 138.03125 113.28125 L 138.148438 113.226562 L 138.15625 113.222656 L 138.273438 113.167969 L 138.386719 113.113281 L 138.390625 113.113281 L 138.511719 113.058594 L 138.625 113.007812 L 138.632812 113.007812 L 138.753906 112.953125 L 138.863281 112.90625 L 138.871094 112.902344 L 138.992188 112.851562 L 139.101562 112.808594 L 139.113281 112.804688 L 139.234375 112.757812 L 139.34375 112.714844 L 139.355469 112.710938 L 139.476562 112.664062 L 139.585938 112.625 L 139.597656 112.621094 L 139.722656 112.578125 L 139.832031 112.539062 L 139.84375 112.535156 L 139.96875 112.492188 L 140.078125 112.457031 L 140.089844 112.453125 L 140.214844 112.414062 L 140.320312 112.378906 L 140.335938 112.375 L 140.457031 112.335938 L 140.5625 112.304688 L 140.582031 112.300781 L 140.703125 112.265625 L 140.8125 112.238281 L 140.828125 112.230469 L 140.949219 112.199219 L 141.054688 112.171875 L 141.074219 112.167969 L 141.199219 112.136719 L 141.300781 112.109375 L 141.320312 112.105469 L 141.441406 112.078125 L 141.546875 112.054688 L 141.566406 112.050781 L 141.691406 112.023438 L 141.792969 112 L 141.816406 111.996094 L 141.9375 111.972656 L 142.039062 111.953125 L 142.0625 111.949219 L 142.1875 111.925781 L 142.289062 111.910156 L 142.3125 111.90625 L 142.4375 111.882812 L 142.535156 111.867188 L 142.5625 111.863281 L 142.6875 111.847656 L 142.785156 111.832031 L 142.808594 111.828125 L 142.933594 111.8125 L 143.03125 111.800781 L 143.058594 111.796875 L 143.1875 111.785156 L 143.277344 111.773438 L 143.308594 111.769531 L 143.433594 111.757812 L 143.53125 111.75 L 143.558594 111.746094 L 143.683594 111.738281 L 143.777344 111.730469 L 143.808594 111.730469 L 143.933594 111.722656 L 144.027344 111.71875 L 144.058594 111.714844 L 144.183594 111.710938 L 144.277344 111.707031 L 144.308594 111.707031 L 144.433594 111.703125 L 144.523438 111.699219 L 144.808594 111.699219 C 147.457031 111.707031 150.105469 112.421875 152.574219 113.847656 L 173.988281 126.207031 L 203.195312 143.074219 L 232.371094 159.917969 L 261.582031 176.78125 L 267.347656 180.109375 C 272.308594 182.976562 275.152344 187.894531 275.152344 193.621094 C 275.152344 199.351562 272.308594 204.269531 267.347656 207.132812 L 261.582031 210.464844 L 232.371094 227.324219 L 203.195312 244.171875 L 173.988281 261.035156 L 152.574219 273.394531 C 150.101562 274.800781 147.453125 275.527344 144.8125 275.542969 L 144.523438 275.542969 L 144.433594 275.539062 L 144.308594 275.535156 L 144.277344 275.535156 L 144.183594 275.53125 L 144.058594 275.527344 L 144.027344 275.527344 L 143.933594 275.519531 L 143.808594 275.511719 L 143.777344 275.507812 L 143.683594 275.503906 L 143.558594 275.496094 L 143.53125 275.492188 L 143.433594 275.484375 L 143.277344 275.464844 L 143.1875 275.453125 L 143.058594 275.441406 L 143.03125 275.4375 L 142.933594 275.421875 L 142.808594 275.410156 L 142.785156 275.402344 L 142.6875 275.390625 L 142.5625 275.371094 L 142.535156 275.367188 L 142.4375 275.355469 L 142.3125 275.332031 L 142.289062 275.328125 L 142.1875 275.3125 L 142.0625 275.289062 L 142.039062 275.285156 L 141.9375 275.265625 L 141.816406 275.238281 L 141.796875 275.234375 L 141.691406 275.214844 L 141.566406 275.183594 L 141.546875 275.183594 L 141.441406 275.160156 L 141.320312 275.132812 L 141.300781 275.128906 L 141.199219 275.105469 L 141.074219 275.074219 L 141.054688 275.066406 L 140.949219 275.042969 L 140.828125 275.007812 L 140.703125 274.976562 L 140.582031 274.941406 L 140.5625 274.933594 L 140.457031 274.902344 L 140.335938 274.863281 L 140.320312 274.863281 L 140.210938 274.828125 L 140.089844 274.789062 L 140.078125 274.78125 L 139.96875 274.746094 L 139.84375 274.707031 L 139.828125 274.703125 L 139.71875 274.664062 L 139.597656 274.617188 L 139.585938 274.613281 L 139.476562 274.574219 L 139.355469 274.527344 L 139.34375 274.523438 L 139.234375 274.480469 L 139.113281 274.433594 L 139.101562 274.429688 L 138.992188 274.382812 L 138.871094 274.332031 L 138.863281 274.332031 L 138.75 274.285156 L 138.632812 274.230469 L 138.625 274.230469 L 138.511719 274.179688 L 138.390625 274.125 L 138.386719 274.125 L 138.273438 274.070312 L 138.152344 274.015625 L 138.148438 274.011719 L 138.03125 273.960938 L 137.917969 273.898438 L 137.910156 273.898438 L 137.796875 273.839844 L 137.679688 273.78125 L 137.675781 273.777344 L 137.5625 273.71875 L 137.445312 273.65625 L 137.441406 273.652344 L 137.210938 273.527344 L 137.207031 273.523438 L 137.089844 273.457031 L 136.976562 273.390625 C 132.015625 270.527344 129.171875 265.609375 129.171875 259.882812 " fill-opacity="1" fill-rule="nonzero"/><path fill="#1800ad" d="M 14.316406 151.765625 C 22.183594 151.765625 28.621094 158.199219 28.621094 166.066406 L 28.621094 221.171875 C 28.621094 229.035156 22.183594 235.472656 14.316406 235.472656 C 6.453125 235.472656 0.0195312 229.035156 0.0195312 221.171875 L 0.0195312 166.066406 C 0.0195312 158.199219 6.453125 151.765625 14.316406 151.765625 Z M 14.316406 151.765625 " fill-opacity="1" fill-rule="nonzero"/><path fill="#1800ad" d="M 362.863281 151.765625 C 354.996094 151.765625 348.5625 158.199219 348.5625 166.066406 L 348.5625 221.171875 C 348.5625 229.035156 354.996094 235.472656 362.863281 235.472656 C 370.726562 235.472656 377.160156 229.035156 377.160156 221.171875 L 377.160156 166.066406 C 377.160156 158.199219 370.726562 151.765625 362.863281 151.765625 Z M 362.863281 151.765625 " fill-opacity="1" fill-rule="nonzero"/><path fill="#1800ad" d="M 71.820312 84.257812 L 71.824219 84.257812 C 79.855469 84.257812 86.425781 90.828125 86.425781 98.863281 L 86.425781 288.375 C 86.425781 296.410156 79.855469 302.976562 71.824219 302.976562 L 71.820312 302.976562 C 63.789062 302.976562 57.21875 296.410156 57.21875 288.375 L 57.21875 98.863281 C 57.21875 90.828125 63.785156 84.257812 71.820312 84.257812 Z M 71.820312 84.257812 " fill-opacity="1" fill-rule="nonzero"/></svg>